<svg width="34" height="20" viewBox="0 0 34 20" fill="none" xmlns="http://www.w3.org/2000/svg">
<path d="M32.3569 7.74032L25.3735 0.755154C24.3669 -0.251718 22.7355 -0.251718 21.7289 0.755154L18.4119 4.07306C17.3879 5.09729 15.7261 5.09729 14.7022 4.07306L11.3851 0.755154C10.3785 -0.251718 8.7471 -0.251718 7.74049 0.755154L0.754958 7.74032C-0.251653 8.7472 -0.251653 10.379 0.754958 11.3859L7.73832 18.3711C8.74493 19.3779 10.3763 19.3779 11.3829 18.3711L14.7 15.0532C15.724 14.0289 17.3857 14.0289 18.4097 15.0532L21.7267 18.3711C22.7334 19.3779 24.3648 19.3779 25.3714 18.3711L32.3547 11.3859C33.3635 10.3812 33.3635 8.7472 32.3569 7.74032ZM23.4276 10.8477H9.68429C8.97489 10.8477 8.39999 10.2727 8.39999 9.56311C8.39999 8.85353 8.97489 8.27848 9.68429 8.27848H23.4276C24.137 8.27848 24.7119 8.85353 24.7119 9.56311C24.7119 10.2727 24.137 10.8477 23.4276 10.8477Z" fill="url(#paint0_linear_9_1607)"/>
<defs>
<linearGradient id="paint0_linear_9_1607" x1="0.00102357" y1="9.56311" x2="33.1114" y2="9.56311" gradientUnits="userSpaceOnUse">
<stop offset="0.1" stop-color="#DC7896"/>
<stop offset="0.9" stop-color="#9E59FE"/>
</linearGradient>
</defs>
</svg>
