<svg width="148" height="24" viewBox="0 0 148 24" fill="none" xmlns="http://www.w3.org/2000/svg">
<g clip-path="url(#clip0_113_2437)">
<path d="M64.6897 0.861483C64.6897 0.295118 65.1735 0 66.3059 0H67.2214C68.3516 0 68.8376 0.295118 68.8376 0.861483V12.3385C68.8376 14.2242 70.3193 15.5978 72.4996 15.5978C74.6798 15.5978 76.1898 14.2242 76.1898 12.3385V0.861483C76.1898 0.295118 76.6757 0 77.806 0H78.6954C79.8279 0 80.3117 0.295118 80.3117 0.861483V12.6076C80.3117 16.7566 77.4285 19.1284 72.4996 19.1284C67.5707 19.1284 64.6875 16.7566 64.6875 12.6076V0.861483H64.6897Z" fill="white"/>
<path d="M82.0337 1.10452C81.9795 0.943942 81.9795 0.807233 81.9795 0.700904C81.9795 0.269078 82.4915 0 83.6499 0H84.3507C85.4007 0 86.0211 0.269078 86.1556 0.835443L88.1754 9.51103C88.3901 10.4268 88.6873 11.8828 89.0106 13.391C89.2536 11.8828 89.6831 10.4268 89.9261 9.51103L92.1345 0.566365C92.243 0.134539 92.755 0 93.6163 0H94.6402C95.5015 0 96.0135 0.134539 96.1219 0.566365L98.2501 9.51103C98.4931 10.5353 98.8424 12.0694 99.1656 13.5797C99.5171 12.0976 99.8382 10.5353 100.081 9.51103L102.181 0.835443C102.316 0.269078 102.936 0 103.986 0H104.283C105.442 0 105.954 0.269078 105.954 0.700904C105.954 0.809403 105.926 0.943942 105.9 1.10452L101.509 18.4014C101.4 18.779 100.782 18.9678 100.027 18.9678H98.0614C97.3064 18.9678 96.66 18.779 96.5797 18.4014L93.9395 7.24774L91.193 18.4014C91.0845 18.779 90.4663 18.9678 89.7113 18.9678H87.7718C86.9106 18.9678 86.3704 18.779 86.2901 18.4014L82.0337 1.10452Z" fill="white"/>
<path d="M107.7 1.13273C107.7 0.377576 108.023 0.0542488 108.778 0.0542488H114.434C116.831 0.0542488 120.845 0.755153 120.845 5.95443C120.845 11.1537 116.159 11.8546 114.703 11.8546H111.848V18.1063C111.848 18.6727 111.362 18.9678 110.232 18.9678H109.316C108.186 18.9678 107.7 18.6705 107.7 18.1063V1.13273ZM114.245 8.29801C115.269 8.29801 116.588 7.89439 116.588 5.95443C116.588 4.01447 115.269 3.58264 114.245 3.58264H111.848V8.29801H114.245Z" fill="white"/>
<path d="M119.25 17.8893L125.175 0.566365C125.336 0.134539 125.928 0 126.711 0H128.11C128.891 0 129.483 0.134539 129.646 0.566365L135.571 17.8893C135.625 18.0781 135.651 18.2387 135.651 18.3754C135.651 18.753 135.248 18.9678 134.304 18.9678H133.119C132.338 18.9678 131.746 18.8333 131.612 18.4014L130.533 15.1139H124.177L123.099 18.4014C122.964 18.8051 122.507 18.9678 121.86 18.9678H120.782C119.649 18.9678 119.14 18.753 119.14 18.3754C119.142 18.2387 119.196 18.0781 119.25 17.8893ZM129.377 11.5573L127.841 6.76166C127.707 6.41013 127.438 5.03653 127.438 5.03653H127.329C127.329 5.03653 127.086 6.3038 126.926 6.76166L125.336 11.5573H129.377Z" fill="white"/>
<path d="M138.249 9.8604L132.89 1.21302C132.727 0.943942 132.621 0.700904 132.621 0.540326C132.621 0.216998 133.159 0.00216998 134.346 0.00216998H135.504C136.285 0.00216998 136.877 0.110669 137.12 0.514286L140.407 6.27993L143.72 0.514286C143.958 0.108499 144.551 0 145.334 0H146.304C147.488 0 148 0.214828 148 0.538156C148 0.700904 147.92 0.941772 147.757 1.21085L142.396 9.94069V18.1042C142.396 18.6705 141.911 18.9656 140.78 18.9656H139.865C138.732 18.9656 138.249 18.6684 138.249 18.1042V9.8604Z" fill="white"/>
<path d="M63.4942 17.9436C63.5485 18.1042 63.5485 18.2409 63.5485 18.3472C63.5485 18.779 63.0365 19.0481 61.878 19.0481H61.1773C60.1273 19.0481 59.5068 18.779 59.3723 18.2127L57.3526 9.53707C57.1378 8.62134 56.8406 7.16528 56.5174 5.65714C56.2744 7.16528 55.8449 8.62134 55.6019 9.53707L53.3934 18.4817C53.285 18.9136 52.773 19.0481 51.9117 19.0481H50.8877C50.0265 19.0481 49.5145 18.9136 49.406 18.4817L47.2778 9.53707C47.0349 8.51284 46.6856 6.97866 46.3623 5.46835C46.0109 6.95045 45.6898 8.51284 45.4468 9.53707L43.3468 18.2127C43.2123 18.779 42.5919 19.0481 41.5419 19.0481H41.2447C40.0862 19.0481 39.5742 18.779 39.5742 18.3472C39.5742 18.2387 39.6024 18.1042 39.6285 17.9436L44.0194 0.646653C44.1278 0.269076 44.7461 0.0802879 45.5011 0.0802879H47.4666C48.2215 0.0802879 48.868 0.269076 48.9483 0.646653L51.5885 11.8004L54.335 0.646653C54.4434 0.269076 55.0617 0.0802879 55.8167 0.0802879H57.7561C58.6174 0.0802879 59.1576 0.269076 59.2378 0.646653L63.4942 17.9436Z" fill="white"/>
<path d="M32.3569 7.74032L25.3735 0.755154C24.3669 -0.251718 22.7355 -0.251718 21.7289 0.755154L18.4119 4.07306C17.3879 5.09729 15.7261 5.09729 14.7022 4.07306L11.3851 0.755154C10.3785 -0.251718 8.7471 -0.251718 7.74049 0.755154L0.754958 7.74032C-0.251653 8.7472 -0.251653 10.379 0.754958 11.3859L7.73832 18.3711C8.74493 19.3779 10.3763 19.3779 11.3829 18.3711L14.7 15.0532C15.724 14.0289 17.3857 14.0289 18.4097 15.0532L21.7267 18.3711C22.7334 19.3779 24.3648 19.3779 25.3714 18.3711L32.3547 11.3859C33.3635 10.3812 33.3635 8.7472 32.3569 7.74032ZM23.4276 10.8477H9.68429C8.97489 10.8477 8.39999 10.2727 8.39999 9.56311C8.39999 8.85353 8.97489 8.27848 9.68429 8.27848H23.4276C24.137 8.27848 24.7119 8.85353 24.7119 9.56311C24.7119 10.2727 24.137 10.8477 23.4276 10.8477Z" fill="url(#paint0_linear_113_2437)"/>
<path d="M41.1326 21.1204H41.5058C41.5189 21.1204 41.5319 21.1248 41.5406 21.1356C41.5492 21.1465 41.5558 21.1573 41.5558 21.1703V23.9175C41.5558 23.9306 41.5514 23.9436 41.5406 23.9523C41.5319 23.9609 41.5189 23.9674 41.5058 23.9674H41.1326C41.1196 23.9674 41.1066 23.9631 41.0979 23.9523C41.0892 23.9436 41.0827 23.9306 41.0827 23.9175V21.9993C41.0827 21.9884 41.0805 21.9841 41.074 21.9841C41.0675 21.9841 41.0632 21.9884 41.0567 21.9971L40.7029 22.6394C40.6899 22.6611 40.6769 22.672 40.6661 22.672C40.6552 22.672 40.6422 22.6611 40.6292 22.6394L40.2755 21.9971C40.269 21.9884 40.2646 21.9841 40.2581 21.9841C40.2538 21.9841 40.2494 21.9884 40.2494 21.9993V23.9175C40.2494 23.9306 40.2451 23.9436 40.2342 23.9523C40.2256 23.9609 40.2125 23.9674 40.1995 23.9674H39.8263C39.8133 23.9674 39.8002 23.9631 39.7916 23.9523C39.7829 23.9436 39.7764 23.9306 39.7764 23.9175V21.1682C39.7764 21.1552 39.7807 21.1421 39.7916 21.1335C39.8024 21.1248 39.8133 21.1183 39.8263 21.1183H40.1995C40.2256 21.1183 40.2473 21.1291 40.2603 21.1508L40.6552 21.8452C40.6639 21.8561 40.6726 21.8561 40.6791 21.8452L41.0653 21.1508C41.0849 21.1313 41.1044 21.1204 41.1326 21.1204Z" fill="white"/>
<path d="M43.473 23.7722C43.3341 23.6224 43.2646 23.4228 43.2646 23.1776V21.1703C43.2646 21.1573 43.269 21.1443 43.2798 21.1356C43.2885 21.1269 43.3015 21.1204 43.3146 21.1204H43.6878C43.7008 21.1204 43.7138 21.1248 43.7225 21.1356C43.7312 21.1443 43.7377 21.1573 43.7377 21.1703V23.2253C43.7377 23.3338 43.7637 23.4228 43.818 23.4901C43.8722 23.5573 43.9439 23.592 44.0328 23.592C44.1218 23.592 44.1934 23.5573 44.2477 23.4901C44.3019 23.4228 44.3279 23.3338 44.3279 23.2253V21.1703C44.3279 21.1573 44.3323 21.1443 44.3431 21.1356C44.354 21.1269 44.3648 21.1204 44.3779 21.1204H44.7511C44.7641 21.1204 44.7771 21.1248 44.7858 21.1356C44.7945 21.1465 44.801 21.1573 44.801 21.1703V23.1776C44.801 23.425 44.7316 23.6224 44.5905 23.7722C44.4495 23.9219 44.265 23.9978 44.0328 23.9978C43.7985 23.9978 43.6118 23.9219 43.473 23.7722Z" fill="white"/>
<path d="M48.0165 21.1335C48.0252 21.1421 48.0317 21.1552 48.0317 21.1682V21.4763C48.0317 21.4893 48.0273 21.5023 48.0165 21.511C48.0078 21.5197 47.9948 21.5262 47.9818 21.5262H47.4653C47.4523 21.5262 47.4458 21.5327 47.4458 21.5457V23.9154C47.4458 23.9284 47.4414 23.9414 47.4306 23.9501C47.4219 23.9588 47.4089 23.9653 47.3959 23.9653H47.0226C47.0096 23.9653 46.9966 23.9609 46.9879 23.9501C46.9792 23.9414 46.9727 23.9284 46.9727 23.9154V21.5457C46.9727 21.5327 46.9662 21.5262 46.9532 21.5262H46.4649C46.4519 21.5262 46.4389 21.5219 46.4302 21.511C46.4216 21.5002 46.415 21.4893 46.415 21.4763V21.1682C46.415 21.1552 46.4194 21.1421 46.4302 21.1335C46.4411 21.1248 46.4519 21.1183 46.4649 21.1183H47.9796C47.9948 21.1204 48.0056 21.1248 48.0165 21.1335Z" fill="white"/>
<path d="M49.8509 23.7721C49.712 23.6224 49.6426 23.4228 49.6426 23.1776V21.1703C49.6426 21.1573 49.6469 21.1443 49.6578 21.1356C49.6664 21.1269 49.6795 21.1204 49.6925 21.1204H50.0657C50.0787 21.1204 50.0918 21.1248 50.1004 21.1356C50.1091 21.1443 50.1156 21.1573 50.1156 21.1703V23.2253C50.1156 23.3338 50.1417 23.4228 50.1959 23.49C50.2502 23.5573 50.3218 23.592 50.4108 23.592C50.4997 23.592 50.5713 23.5573 50.6256 23.49C50.6798 23.4228 50.7059 23.3338 50.7059 23.2253V21.1703C50.7059 21.1573 50.7102 21.1443 50.7211 21.1356C50.7319 21.1269 50.7428 21.1204 50.7558 21.1204H51.129C51.142 21.1204 51.1551 21.1248 51.1637 21.1356C51.1724 21.1465 51.1789 21.1573 51.1789 21.1703V23.1776C51.1789 23.4249 51.1095 23.6224 50.9684 23.7721C50.8274 23.9219 50.6429 23.9978 50.4108 23.9978C50.1764 23.9978 49.9898 23.9219 49.8509 23.7721Z" fill="white"/>
<path d="M53.9558 23.9197L53.8777 23.4922C53.8777 23.4792 53.869 23.4727 53.8538 23.4727H53.2614C53.244 23.4727 53.2375 23.4792 53.2375 23.4922L53.1594 23.9197C53.1572 23.9501 53.1399 23.9653 53.1073 23.9653H52.7384C52.7016 23.9653 52.6864 23.9479 52.6929 23.9132L53.294 21.166C53.3005 21.1356 53.3178 21.1204 53.346 21.1204H53.7779C53.8082 21.1204 53.8256 21.1356 53.8299 21.166L54.431 23.9132V23.9306C54.431 23.9544 54.4158 23.9674 54.3855 23.9674H54.0079C53.9753 23.9631 53.958 23.9501 53.9558 23.9197ZM53.3308 23.1038H53.7822C53.7996 23.1038 53.8061 23.0973 53.8017 23.0843L53.5652 21.7996C53.563 21.791 53.5587 21.7866 53.5522 21.7866C53.5457 21.7866 53.5435 21.791 53.5392 21.7996L53.307 23.0843C53.307 23.0951 53.3135 23.1038 53.3308 23.1038Z" fill="white"/>
<path d="M56.0211 23.9501C56.0124 23.9414 56.0059 23.9284 56.0059 23.9154V21.1682C56.0059 21.1552 56.0102 21.1421 56.0211 21.1335C56.0297 21.1248 56.0428 21.1183 56.0558 21.1183H56.429C56.442 21.1183 56.455 21.1226 56.4637 21.1335C56.4724 21.1443 56.4789 21.1552 56.4789 21.1682V23.5378C56.4789 23.5508 56.4854 23.5573 56.4984 23.5573H57.3751C57.3881 23.5573 57.4012 23.5617 57.4098 23.5725C57.4185 23.5812 57.425 23.5942 57.425 23.6072V23.9154C57.425 23.9284 57.4207 23.9414 57.4098 23.9501C57.4012 23.9588 57.3881 23.9653 57.3751 23.9653H56.0536C56.0427 23.9631 56.0297 23.9588 56.0211 23.9501Z" fill="white"/>
<path d="M59.0064 23.9501C58.9977 23.9414 58.9912 23.9284 58.9912 23.9154V21.1682C58.9912 21.1552 58.9955 21.1421 59.0064 21.1335C59.0151 21.1248 59.0281 21.1183 59.0411 21.1183H59.4144C59.4274 21.1183 59.4404 21.1226 59.4491 21.1335C59.4578 21.1443 59.4643 21.1552 59.4643 21.1682V23.9154C59.4643 23.9284 59.4599 23.9414 59.4491 23.9501C59.4404 23.9588 59.4274 23.9653 59.4144 23.9653H59.0411C59.0281 23.9631 59.0172 23.9588 59.0064 23.9501Z" fill="white"/>
<path d="M61.0974 23.9501C61.0888 23.9414 61.0823 23.9284 61.0823 23.9154V23.5899C61.0823 23.5682 61.0866 23.5486 61.0953 23.5291L62.0045 21.5501C62.0067 21.5457 62.0067 21.5392 62.0045 21.5349C62.0023 21.5284 61.998 21.5262 61.9915 21.5262H61.13C61.117 21.5262 61.1039 21.5219 61.0953 21.511C61.0866 21.5023 61.0801 21.4893 61.0801 21.4763V21.1682C61.0801 21.1552 61.0844 21.1421 61.0953 21.1335C61.1039 21.1248 61.117 21.1183 61.13 21.1183H62.4624C62.4754 21.1183 62.4884 21.1226 62.4971 21.1335C62.5058 21.1443 62.5123 21.1552 62.5123 21.1682V21.4937C62.5123 21.5132 62.5079 21.5327 62.4992 21.5544L61.59 23.5335C61.5879 23.54 61.5879 23.5443 61.59 23.5508C61.5922 23.5552 61.5965 23.5595 61.603 23.5595H62.4645C62.4775 23.5595 62.4906 23.5638 62.4992 23.5747C62.5079 23.5855 62.5144 23.5964 62.5144 23.6094V23.9175C62.5144 23.9306 62.5101 23.9436 62.4992 23.9523C62.4906 23.9609 62.4775 23.9674 62.4645 23.9674H61.1322C61.1191 23.9631 61.1083 23.9588 61.0974 23.9501Z" fill="white"/>
<path d="M65.2527 23.9197L65.1746 23.4922C65.1746 23.4792 65.1659 23.4727 65.1507 23.4727H64.5583C64.5409 23.4727 64.5344 23.4792 64.5344 23.4922L64.4563 23.9197C64.4541 23.9501 64.4368 23.9653 64.4042 23.9653H64.0353C63.9984 23.9653 63.9832 23.9479 63.9897 23.9132L64.5908 21.166C64.5973 21.1356 64.6147 21.1204 64.6429 21.1204H65.0747C65.1051 21.1204 65.1225 21.1356 65.1268 21.166L65.7279 23.9132V23.9306C65.7279 23.9544 65.7127 23.9674 65.6823 23.9674H65.3048C65.2722 23.9631 65.2548 23.9501 65.2527 23.9197ZM64.6277 23.1038H65.0791C65.0964 23.1038 65.1029 23.0973 65.0986 23.0843L64.8621 21.7996C64.8599 21.791 64.8556 21.7866 64.8491 21.7866C64.8426 21.7866 64.8404 21.791 64.836 21.7996L64.6039 23.0843C64.6039 23.0951 64.6104 23.1038 64.6277 23.1038Z" fill="white"/>
<path d="M68.5565 21.1335C68.5652 21.1421 68.5717 21.1552 68.5717 21.1682V21.4763C68.5717 21.4893 68.5674 21.5023 68.5565 21.511C68.5478 21.5197 68.5348 21.5262 68.5218 21.5262H68.0053C67.9923 21.5262 67.9858 21.5327 67.9858 21.5457V23.9154C67.9858 23.9284 67.9815 23.9414 67.9706 23.9501C67.9619 23.9588 67.9489 23.9653 67.9359 23.9653H67.5627C67.5497 23.9653 67.5366 23.9609 67.5279 23.9501C67.5193 23.9414 67.5128 23.9284 67.5128 23.9154V21.5457C67.5128 21.5327 67.5062 21.5262 67.4932 21.5262H67.005C66.992 21.5262 66.9789 21.5219 66.9703 21.511C66.9616 21.5002 66.9551 21.4893 66.9551 21.4763V21.1682C66.9551 21.1552 66.9594 21.1421 66.9703 21.1335C66.9811 21.1248 66.992 21.1183 67.005 21.1183H68.5196C68.537 21.1204 68.5478 21.1248 68.5565 21.1335Z" fill="white"/>
<path d="M70.2134 23.9501C70.2048 23.9414 70.1982 23.9284 70.1982 23.9154V21.1682C70.1982 21.1552 70.2026 21.1421 70.2134 21.1335C70.2221 21.1248 70.2351 21.1183 70.2482 21.1183H70.6214C70.6344 21.1183 70.6474 21.1226 70.6561 21.1335C70.6648 21.1443 70.6713 21.1552 70.6713 21.1682V23.9154C70.6713 23.9284 70.667 23.9414 70.6561 23.9501C70.6474 23.9588 70.6344 23.9653 70.6214 23.9653H70.2482C70.2351 23.9631 70.2221 23.9588 70.2134 23.9501Z" fill="white"/>
<path d="M72.574 23.7852C72.4308 23.6441 72.3613 23.4575 72.3613 23.2253V21.8604C72.3613 21.6282 72.4329 21.4416 72.574 21.3005C72.7172 21.1595 72.9038 21.09 73.136 21.09C73.3682 21.09 73.557 21.1617 73.7002 21.3005C73.8434 21.4416 73.915 21.6282 73.915 21.8604V23.2253C73.915 23.4575 73.8434 23.6441 73.7002 23.7852C73.557 23.9262 73.3682 23.9957 73.136 23.9957C72.9038 23.9978 72.7172 23.9262 72.574 23.7852ZM73.3595 23.4944C73.4159 23.4315 73.4442 23.3468 73.4442 23.2448V21.8387C73.4442 21.7367 73.4159 21.6521 73.3595 21.5891C73.3031 21.5262 73.2272 21.4937 73.136 21.4937C73.0449 21.4937 72.9711 21.5262 72.9147 21.5891C72.8583 21.6521 72.8322 21.7367 72.8322 21.8387V23.2448C72.8322 23.3468 72.8604 23.4315 72.9147 23.4944C72.9689 23.5573 73.0449 23.5899 73.136 23.5899C73.2293 23.5899 73.3031 23.5595 73.3595 23.4944Z" fill="white"/>
<path d="M76.7743 21.1335C76.783 21.1248 76.796 21.1183 76.809 21.1183H77.1779C77.191 21.1183 77.204 21.1226 77.2127 21.1335C77.2213 21.1421 77.2279 21.1552 77.2279 21.1682V23.9154C77.2279 23.9284 77.2235 23.9414 77.2127 23.9501C77.204 23.9588 77.191 23.9653 77.1779 23.9653H76.7505C76.7244 23.9653 76.7049 23.9523 76.6984 23.9241L76.093 22.2011C76.0908 22.1924 76.0864 22.1902 76.0778 22.1902C76.0713 22.1924 76.0669 22.1967 76.0669 22.2054L76.0713 23.9154C76.0713 23.9284 76.0669 23.9414 76.0561 23.9501C76.0474 23.9588 76.0344 23.9653 76.0214 23.9653H75.6525C75.6394 23.9653 75.6264 23.9609 75.6177 23.9501C75.6091 23.9414 75.6025 23.9284 75.6025 23.9154V21.1682C75.6025 21.1552 75.6069 21.1421 75.6177 21.1335C75.6264 21.1248 75.6394 21.1183 75.6525 21.1183H76.0713C76.0973 21.1183 76.1168 21.1313 76.1233 21.1595L76.7331 22.8694C76.7353 22.8781 76.7396 22.8803 76.7483 22.8803C76.7548 22.8781 76.7591 22.8738 76.7591 22.8651V21.166C76.7613 21.1552 76.7657 21.1443 76.7743 21.1335Z" fill="white"/>
<path d="M82.5712 21.1335C82.5798 21.1421 82.5864 21.1552 82.5864 21.1682V21.4763C82.5864 21.4893 82.582 21.5023 82.5712 21.511C82.5625 21.5197 82.5495 21.5262 82.5365 21.5262H82.02C82.007 21.5262 82.0005 21.5327 82.0005 21.5457V23.9154C82.0005 23.9284 81.9961 23.9414 81.9853 23.9501C81.9766 23.9588 81.9636 23.9653 81.9506 23.9653H81.5773C81.5643 23.9653 81.5513 23.9609 81.5426 23.9501C81.5339 23.9414 81.5274 23.9284 81.5274 23.9154V21.5457C81.5274 21.5327 81.5209 21.5262 81.5079 21.5262H81.0196C81.0066 21.5262 80.9936 21.5219 80.9849 21.511C80.9762 21.5002 80.9697 21.4893 80.9697 21.4763V21.1682C80.9697 21.1552 80.9741 21.1421 80.9849 21.1335C80.9958 21.1248 81.0066 21.1183 81.0196 21.1183H82.5343C82.5495 21.1204 82.5625 21.1248 82.5712 21.1335Z" fill="white"/>
<path d="M84.28 23.7852C84.1368 23.6441 84.0674 23.4575 84.0674 23.2253V21.8604C84.0674 21.6282 84.139 21.4416 84.28 21.3005C84.4233 21.1595 84.6099 21.0901 84.8421 21.0901C85.0742 21.0901 85.263 21.1617 85.4063 21.3005C85.5495 21.4416 85.6211 21.6282 85.6211 21.8604V23.2253C85.6211 23.4575 85.5495 23.6441 85.4063 23.7852C85.263 23.9262 85.0742 23.9957 84.8421 23.9957C84.6099 23.9978 84.4233 23.9262 84.28 23.7852ZM85.0677 23.4944C85.1242 23.4315 85.1524 23.3468 85.1524 23.2448V21.8387C85.1524 21.7367 85.1242 21.6521 85.0677 21.5891C85.0113 21.5262 84.9354 21.4937 84.8442 21.4937C84.7531 21.4937 84.6793 21.5262 84.6229 21.5891C84.5665 21.6521 84.5404 21.7367 84.5404 21.8387V23.2448C84.5404 23.3468 84.5686 23.4315 84.6229 23.4944C84.6771 23.5573 84.7531 23.5899 84.8442 23.5899C84.9354 23.5899 85.0092 23.5595 85.0677 23.4944Z" fill="white"/>
<path d="M87.3277 23.9501C87.319 23.9414 87.3125 23.9284 87.3125 23.9154V21.1682C87.3125 21.1552 87.3168 21.1421 87.3277 21.1335C87.3364 21.1248 87.3494 21.1183 87.3624 21.1183H87.7356C87.7487 21.1183 87.7617 21.1226 87.7704 21.1335C87.779 21.1443 87.7856 21.1552 87.7856 21.1682V22.2901C87.7856 22.3009 87.7877 22.3074 87.7942 22.3074C87.7986 22.3096 87.8051 22.3052 87.8116 22.2966L88.4214 21.1552C88.4344 21.1313 88.4561 21.1183 88.4821 21.1183H88.8836C88.9031 21.1183 88.9139 21.1248 88.9205 21.1356C88.9248 21.1465 88.9248 21.1595 88.9161 21.1769L88.3063 22.3183C88.3042 22.3291 88.302 22.3378 88.302 22.3421L88.9595 23.9067C88.9617 23.9132 88.9639 23.9197 88.9639 23.9306C88.9639 23.9523 88.9508 23.9631 88.9226 23.9631H88.5212C88.4908 23.9631 88.4734 23.9501 88.4648 23.9262L87.9852 22.7523C87.983 22.7436 87.9787 22.7414 87.9722 22.7414C87.9678 22.7436 87.9613 22.7457 87.957 22.7523L87.7942 23.0235C87.7877 23.0344 87.7856 23.043 87.7856 23.0474V23.9132C87.7856 23.9262 87.7812 23.9392 87.7704 23.9479C87.7617 23.9566 87.7487 23.9631 87.7356 23.9631H87.3624C87.3472 23.9631 87.3364 23.9588 87.3277 23.9501Z" fill="white"/>
<path d="M91.953 21.5132C91.9443 21.5219 91.9313 21.5284 91.9183 21.5284H91.0416C91.0286 21.5284 91.0221 21.5349 91.0221 21.5479V22.3161C91.0221 22.3291 91.0286 22.3356 91.0416 22.3356H91.5624C91.5754 22.3356 91.5885 22.34 91.5971 22.3508C91.6058 22.3595 91.6123 22.3725 91.6123 22.3855V22.698C91.6123 22.711 91.608 22.7241 91.5971 22.7327C91.5885 22.7414 91.5754 22.7479 91.5624 22.7479H91.0416C91.0286 22.7479 91.0221 22.7544 91.0221 22.7674V23.54C91.0221 23.553 91.0286 23.5595 91.0416 23.5595H91.9183C91.9313 23.5595 91.9443 23.5638 91.953 23.5747C91.9617 23.5834 91.9682 23.5964 91.9682 23.6094V23.9175C91.9682 23.9306 91.9639 23.9436 91.953 23.9523C91.9443 23.9609 91.9313 23.9674 91.9183 23.9674H90.5968C90.5838 23.9674 90.5707 23.9631 90.5621 23.9523C90.5534 23.9436 90.5469 23.9306 90.5469 23.9175V21.1682C90.5469 21.1552 90.5512 21.1421 90.5621 21.1335C90.5707 21.1248 90.5838 21.1183 90.5968 21.1183H91.9183C91.9313 21.1183 91.9443 21.1226 91.953 21.1335C91.9617 21.1421 91.9682 21.1552 91.9682 21.1682V21.4763C91.9682 21.4915 91.9639 21.5023 91.953 21.5132Z" fill="white"/>
<path d="M94.7841 21.1335C94.7928 21.1248 94.8058 21.1183 94.8188 21.1183H95.1877C95.2007 21.1183 95.2137 21.1226 95.2224 21.1335C95.2311 21.1421 95.2376 21.1552 95.2376 21.1682V23.9154C95.2376 23.9284 95.2333 23.9414 95.2224 23.9501C95.2137 23.9588 95.2007 23.9653 95.1877 23.9653H94.7602C94.7342 23.9653 94.7147 23.9523 94.7081 23.9241L94.1027 22.2011C94.1005 22.1924 94.0962 22.1902 94.0875 22.1902C94.081 22.1924 94.0767 22.1967 94.0767 22.2054L94.081 23.9154C94.081 23.9284 94.0767 23.9414 94.0658 23.9501C94.0572 23.9588 94.0441 23.9653 94.0311 23.9653H93.6622C93.6492 23.9653 93.6362 23.9609 93.6275 23.9501C93.6188 23.9414 93.6123 23.9284 93.6123 23.9154V21.1682C93.6123 21.1552 93.6166 21.1421 93.6275 21.1335C93.6362 21.1248 93.6492 21.1183 93.6622 21.1183H94.081C94.1071 21.1183 94.1266 21.1313 94.1331 21.1595L94.7429 22.8694C94.745 22.8781 94.7494 22.8803 94.7581 22.8803C94.7646 22.8781 94.7689 22.8738 94.7689 22.8651V21.166C94.7711 21.1552 94.7754 21.1443 94.7841 21.1335Z" fill="white"/>
<path d="M101.071 23.9349C101.071 23.9544 101.058 23.9631 101.03 23.9631H100.629C100.605 23.9631 100.583 23.9544 100.568 23.9349L100.451 23.7765C100.442 23.7678 100.433 23.7678 100.423 23.7722C100.227 23.9241 100.004 24 99.752 24C99.5198 24 99.3354 23.9414 99.2008 23.8221C99.0663 23.7027 98.999 23.5291 98.999 23.3013C98.999 23.1233 99.0403 22.9693 99.1205 22.8434C99.2008 22.7175 99.3137 22.5982 99.4547 22.4875C99.4656 22.4788 99.4677 22.4702 99.4591 22.4593C99.3289 22.277 99.2442 22.1447 99.2073 22.06C99.1705 21.9754 99.1509 21.8821 99.1509 21.7823C99.1509 21.5718 99.2139 21.4025 99.3397 21.2767C99.4656 21.1508 99.6327 21.0879 99.841 21.0879C99.9799 21.0879 100.104 21.1161 100.21 21.1747C100.316 21.2333 100.403 21.3157 100.466 21.4199C100.529 21.5262 100.559 21.6477 100.559 21.7844C100.559 21.9515 100.516 22.0969 100.431 22.2163C100.347 22.3378 100.229 22.4528 100.084 22.5635C100.073 22.5722 100.071 22.5808 100.08 22.5917C100.091 22.6069 100.143 22.6785 100.234 22.8022L100.444 23.0908C100.451 23.0973 100.455 23.0995 100.462 23.0995C100.466 23.0995 100.47 23.0973 100.475 23.0908C100.542 22.9953 100.605 22.8933 100.661 22.7826C100.676 22.7523 100.7 22.7457 100.731 22.7631L101.006 22.9215C101.032 22.941 101.039 22.9627 101.024 22.9866C100.932 23.1624 100.837 23.3165 100.739 23.4467C100.731 23.4575 100.731 23.4662 100.735 23.4749C100.802 23.5595 100.911 23.7005 101.061 23.9023C101.067 23.9132 101.071 23.9241 101.071 23.9349ZM100.169 23.4358C100.179 23.4271 100.182 23.4184 100.173 23.4076L100.023 23.2123L99.7433 22.8477C99.7346 22.8369 99.726 22.8347 99.7151 22.8434C99.5524 22.9779 99.4721 23.119 99.4721 23.2665C99.4721 23.362 99.5003 23.4401 99.5567 23.5031C99.6131 23.566 99.6934 23.5964 99.7976 23.5964C99.9169 23.5942 100.043 23.5421 100.169 23.4358ZM99.6826 21.5935C99.6413 21.6456 99.6196 21.715 99.6196 21.7996C99.6196 21.8582 99.6305 21.9125 99.65 21.9624C99.6695 22.0123 99.7195 22.0926 99.7976 22.2054C99.8063 22.2184 99.8149 22.2228 99.8258 22.2141C99.9104 22.1468 99.9733 22.0796 100.019 22.0101C100.064 21.9429 100.086 21.8691 100.086 21.791C100.086 21.7107 100.064 21.6434 100.019 21.5913C99.9733 21.5392 99.9169 21.5132 99.8497 21.5132C99.7824 21.5132 99.726 21.5414 99.6826 21.5935Z" fill="white"/>
<path d="M105.28 23.9197L104.74 21.1725L104.735 21.1552C104.735 21.1313 104.751 21.1183 104.781 21.1183H105.172C105.204 21.1183 105.221 21.1335 105.224 21.1638L105.508 22.8586C105.51 22.8673 105.514 22.8716 105.521 22.8716C105.527 22.8716 105.53 22.8673 105.534 22.8586L105.79 21.1638C105.792 21.1335 105.809 21.1183 105.842 21.1183H106.168C106.2 21.1183 106.217 21.1335 106.22 21.1638L106.495 22.8586C106.497 22.8673 106.502 22.8716 106.508 22.8716C106.513 22.8716 106.517 22.8673 106.521 22.8586L106.777 21.1638C106.779 21.1335 106.797 21.1183 106.829 21.1183H107.207C107.242 21.1183 107.257 21.1356 107.253 21.1703L106.736 23.9175C106.734 23.9479 106.717 23.9631 106.684 23.9631H106.339C106.306 23.9631 106.289 23.9479 106.287 23.9175L106.016 22.1902C106.013 22.1794 106.009 22.1729 106.003 22.1729C105.996 22.1729 105.994 22.1794 105.99 22.1902L105.738 23.9175C105.736 23.9479 105.718 23.9631 105.686 23.9631H105.336C105.3 23.9631 105.282 23.9501 105.28 23.9197Z" fill="white"/>
<path d="M109.695 23.9197L109.617 23.4922C109.617 23.4792 109.608 23.4727 109.593 23.4727H109.001C108.983 23.4727 108.977 23.4792 108.977 23.4922L108.899 23.9197C108.897 23.9501 108.879 23.9653 108.847 23.9653H108.478C108.441 23.9653 108.426 23.9479 108.432 23.9132L109.033 21.166C109.04 21.1356 109.057 21.1204 109.085 21.1204H109.517C109.547 21.1204 109.565 21.1356 109.569 21.166L110.17 23.9132V23.9306C110.17 23.9544 110.155 23.9674 110.125 23.9674H109.747C109.715 23.9631 109.697 23.9501 109.695 23.9197ZM109.07 23.1038H109.521C109.539 23.1038 109.545 23.0973 109.541 23.0843L109.304 21.7996C109.302 21.791 109.298 21.7866 109.291 21.7866C109.285 21.7866 109.283 21.791 109.278 21.7996L109.046 23.0843C109.046 23.0951 109.053 23.1038 109.07 23.1038Z" fill="white"/>
<path d="M111.76 23.9501C111.752 23.9414 111.745 23.9284 111.745 23.9154V21.1682C111.745 21.1552 111.749 21.1421 111.76 21.1335C111.769 21.1248 111.782 21.1183 111.795 21.1183H112.168C112.181 21.1183 112.194 21.1226 112.203 21.1335C112.212 21.1443 112.218 21.1552 112.218 21.1682V23.5378C112.218 23.5508 112.225 23.5573 112.238 23.5573H113.114C113.127 23.5573 113.14 23.5617 113.149 23.5725C113.158 23.5812 113.164 23.5942 113.164 23.6072V23.9154C113.164 23.9284 113.16 23.9414 113.149 23.9501C113.14 23.9588 113.127 23.9653 113.114 23.9653H111.793C111.782 23.9631 111.771 23.9588 111.76 23.9501Z" fill="white"/>
<path d="M114.745 23.9501C114.736 23.9414 114.729 23.9284 114.729 23.9154V21.1682C114.729 21.1552 114.734 21.1421 114.745 21.1335C114.753 21.1248 114.766 21.1183 114.779 21.1183H115.153C115.166 21.1183 115.179 21.1226 115.187 21.1335C115.196 21.1443 115.203 21.1552 115.203 21.1682V23.5378C115.203 23.5508 115.209 23.5573 115.222 23.5573H116.099C116.112 23.5573 116.125 23.5617 116.133 23.5725C116.142 23.5812 116.149 23.5942 116.149 23.6072V23.9154C116.149 23.9284 116.144 23.9414 116.133 23.9501C116.125 23.9588 116.112 23.9653 116.099 23.9653H114.777C114.766 23.9631 114.756 23.9588 114.745 23.9501Z" fill="white"/>
<path d="M119.121 21.5132C119.112 21.5219 119.099 21.5284 119.086 21.5284H118.21C118.197 21.5284 118.19 21.5349 118.19 21.5479V22.3161C118.19 22.3291 118.197 22.3356 118.21 22.3356H118.73C118.743 22.3356 118.756 22.34 118.765 22.3508C118.774 22.3595 118.78 22.3725 118.78 22.3855V22.698C118.78 22.711 118.776 22.7241 118.765 22.7327C118.756 22.7414 118.743 22.7479 118.73 22.7479H118.21C118.197 22.7479 118.19 22.7544 118.19 22.7674V23.54C118.19 23.553 118.197 23.5595 118.21 23.5595H119.086C119.099 23.5595 119.112 23.5638 119.121 23.5747C119.13 23.5834 119.136 23.5964 119.136 23.6094V23.9175C119.136 23.9306 119.132 23.9436 119.121 23.9523C119.112 23.9609 119.099 23.9674 119.086 23.9674H117.765C117.752 23.9674 117.739 23.9631 117.73 23.9523C117.721 23.9436 117.715 23.9306 117.715 23.9175V21.1682C117.715 21.1552 117.719 21.1421 117.73 21.1335C117.739 21.1248 117.752 21.1183 117.765 21.1183H119.086C119.099 21.1183 119.112 21.1226 119.121 21.1335C119.13 21.1421 119.136 21.1552 119.136 21.1682V21.4763C119.136 21.4915 119.13 21.5023 119.121 21.5132Z" fill="white"/>
<path d="M122.277 21.1335C122.286 21.1421 122.292 21.1552 122.292 21.1682V21.4763C122.292 21.4893 122.288 21.5023 122.277 21.511C122.269 21.5197 122.256 21.5262 122.243 21.5262H121.726C121.713 21.5262 121.707 21.5327 121.707 21.5457V23.9154C121.707 23.9284 121.702 23.9414 121.691 23.9501C121.683 23.9588 121.67 23.9653 121.657 23.9653H121.283C121.27 23.9653 121.257 23.9609 121.249 23.9501C121.24 23.9414 121.233 23.9284 121.233 23.9154V21.5457C121.233 21.5327 121.227 21.5262 121.214 21.5262H120.726C120.713 21.5262 120.7 21.5219 120.691 21.511C120.682 21.5002 120.676 21.4893 120.676 21.4763V21.1682C120.676 21.1552 120.68 21.1421 120.691 21.1335C120.702 21.1248 120.713 21.1183 120.726 21.1183H122.24C122.256 21.1204 122.266 21.1248 122.277 21.1335Z" fill="white"/>
<path d="M127.222 21.2224C127.33 21.294 127.417 21.3917 127.478 21.5197C127.539 21.6477 127.569 21.791 127.569 21.9537C127.569 22.1967 127.504 22.3942 127.376 22.5439C127.248 22.6937 127.076 22.7674 126.866 22.7674H126.521C126.508 22.7674 126.501 22.774 126.501 22.787V23.9175C126.501 23.9306 126.497 23.9436 126.486 23.9523C126.478 23.9609 126.464 23.9674 126.451 23.9674H126.078C126.065 23.9674 126.052 23.9631 126.044 23.9523C126.035 23.9436 126.028 23.9306 126.028 23.9175V21.1638C126.028 21.1508 126.033 21.1378 126.044 21.1291C126.054 21.1204 126.065 21.1139 126.078 21.1139H126.842C126.985 21.1161 127.111 21.1508 127.222 21.2224ZM127.005 22.2792C127.066 22.2011 127.096 22.0969 127.096 21.9646C127.096 21.83 127.066 21.7215 127.005 21.6412C126.944 21.5609 126.864 21.5219 126.764 21.5219H126.521C126.508 21.5219 126.501 21.5284 126.501 21.5414V22.3747C126.501 22.3877 126.508 22.3942 126.521 22.3942H126.764C126.864 22.3964 126.944 22.3573 127.005 22.2792Z" fill="white"/>
<path d="M130.164 23.9197L130.086 23.4922C130.086 23.4792 130.077 23.4727 130.062 23.4727H129.469C129.452 23.4727 129.446 23.4792 129.446 23.4922L129.367 23.9197C129.365 23.9501 129.348 23.9653 129.315 23.9653H128.946C128.91 23.9653 128.894 23.9479 128.901 23.9132L129.502 21.166C129.508 21.1356 129.526 21.1204 129.554 21.1204H129.986C130.016 21.1204 130.034 21.1356 130.038 21.166L130.639 23.9132V23.9306C130.639 23.9544 130.624 23.9674 130.593 23.9674H130.216C130.183 23.9631 130.166 23.9501 130.164 23.9197ZM129.539 23.1038H129.99C130.008 23.1038 130.014 23.0973 130.01 23.0843L129.773 21.7996C129.771 21.791 129.767 21.7866 129.76 21.7866C129.754 21.7866 129.752 21.791 129.747 21.7996L129.515 23.0843C129.515 23.0951 129.521 23.1038 129.539 23.1038Z" fill="white"/>
<path d="M132.506 23.9457C132.497 23.9371 132.491 23.9241 132.491 23.911V22.8022L132.487 22.7783L131.922 21.1769C131.92 21.1725 131.918 21.1638 131.918 21.1573C131.918 21.1335 131.933 21.1204 131.964 21.1204H132.354C132.385 21.1204 132.402 21.1335 132.411 21.1617L132.714 22.2054C132.717 22.2141 132.721 22.2184 132.727 22.2184C132.732 22.2184 132.736 22.2141 132.74 22.2054L133.044 21.1617C133.053 21.1356 133.07 21.1204 133.101 21.1204H133.491C133.509 21.1204 133.519 21.1248 133.528 21.1356C133.537 21.1443 133.537 21.1595 133.532 21.179L132.968 22.7805L132.964 22.8043V23.9132C132.964 23.9262 132.96 23.9392 132.949 23.9479C132.94 23.9566 132.927 23.9631 132.914 23.9631H132.541C132.526 23.9609 132.515 23.9544 132.506 23.9457Z" fill="white"/>
<path d="M136.509 21.1204H136.882C136.895 21.1204 136.908 21.1248 136.917 21.1356C136.925 21.1465 136.932 21.1573 136.932 21.1703V23.9175C136.932 23.9306 136.927 23.9436 136.917 23.9523C136.908 23.9609 136.895 23.9674 136.882 23.9674H136.509C136.496 23.9674 136.483 23.9631 136.474 23.9523C136.465 23.9436 136.459 23.9306 136.459 23.9175V21.9993C136.459 21.9884 136.456 21.9841 136.45 21.9841C136.443 21.9841 136.439 21.9884 136.433 21.9971L136.079 22.6394C136.066 22.6611 136.053 22.672 136.042 22.672C136.031 22.672 136.018 22.6611 136.005 22.6394L135.651 21.9971C135.645 21.9884 135.641 21.9841 135.634 21.9841C135.63 21.9841 135.625 21.9884 135.625 21.9993V23.9175C135.625 23.9306 135.621 23.9436 135.61 23.9523C135.602 23.9609 135.589 23.9674 135.575 23.9674H135.202C135.189 23.9674 135.176 23.9631 135.168 23.9523C135.159 23.9436 135.152 23.9306 135.152 23.9175V21.1682C135.152 21.1552 135.157 21.1421 135.168 21.1335C135.178 21.1248 135.189 21.1183 135.202 21.1183H135.575C135.602 21.1183 135.623 21.1291 135.636 21.1508L136.031 21.8452C136.04 21.8561 136.049 21.8561 136.055 21.8452L136.441 21.1508C136.461 21.1313 136.48 21.1204 136.509 21.1204Z" fill="white"/>
<path d="M140.06 21.5132C140.052 21.5219 140.039 21.5284 140.026 21.5284H139.149C139.136 21.5284 139.13 21.5349 139.13 21.5479V22.3161C139.13 22.3291 139.136 22.3356 139.149 22.3356H139.67C139.683 22.3356 139.696 22.34 139.705 22.3508C139.713 22.3595 139.72 22.3725 139.72 22.3855V22.698C139.72 22.711 139.715 22.7241 139.705 22.7327C139.696 22.7414 139.683 22.7479 139.67 22.7479H139.149C139.136 22.7479 139.13 22.7544 139.13 22.7674V23.54C139.13 23.553 139.136 23.5595 139.149 23.5595H140.026C140.039 23.5595 140.052 23.5638 140.06 23.5747C140.069 23.5834 140.076 23.5964 140.076 23.6094V23.9175C140.076 23.9306 140.071 23.9436 140.06 23.9523C140.052 23.9609 140.039 23.9674 140.026 23.9674H138.704C138.691 23.9674 138.678 23.9631 138.669 23.9523C138.661 23.9436 138.654 23.9306 138.654 23.9175V21.1682C138.654 21.1552 138.659 21.1421 138.669 21.1335C138.678 21.1248 138.691 21.1183 138.704 21.1183H140.026C140.039 21.1183 140.052 21.1226 140.06 21.1335C140.069 21.1421 140.076 21.1552 140.076 21.1682V21.4763C140.076 21.4915 140.071 21.5023 140.06 21.5132Z" fill="white"/>
<path d="M142.892 21.1335C142.9 21.1248 142.913 21.1183 142.926 21.1183H143.295C143.308 21.1183 143.321 21.1226 143.33 21.1335C143.339 21.1421 143.345 21.1552 143.345 21.1682V23.9154C143.345 23.9284 143.341 23.9414 143.33 23.9501C143.321 23.9588 143.308 23.9653 143.295 23.9653H142.868C142.842 23.9653 142.822 23.9523 142.816 23.9241L142.21 22.2011C142.208 22.1924 142.204 22.1902 142.195 22.1902C142.188 22.1924 142.184 22.1967 142.184 22.2054L142.188 23.9154C142.188 23.9284 142.184 23.9414 142.173 23.9501C142.165 23.9588 142.152 23.9653 142.139 23.9653H141.77C141.757 23.9653 141.744 23.9609 141.735 23.9501C141.726 23.9414 141.72 23.9284 141.72 23.9154V21.1682C141.72 21.1552 141.724 21.1421 141.735 21.1335C141.744 21.1248 141.757 21.1183 141.77 21.1183H142.188C142.214 21.1183 142.234 21.1313 142.241 21.1595L142.85 22.8694C142.852 22.8781 142.857 22.8803 142.865 22.8803C142.872 22.8781 142.876 22.8738 142.876 22.8651V21.166C142.879 21.1552 142.883 21.1443 142.892 21.1335Z" fill="white"/>
<path d="M146.577 21.1335C146.586 21.1421 146.592 21.1552 146.592 21.1682V21.4763C146.592 21.4893 146.588 21.5023 146.577 21.511C146.568 21.5197 146.555 21.5262 146.542 21.5262H146.026C146.013 21.5262 146.006 21.5327 146.006 21.5457V23.9154C146.006 23.9284 146.002 23.9414 145.991 23.9501C145.982 23.9588 145.969 23.9653 145.956 23.9653H145.583C145.57 23.9653 145.557 23.9609 145.548 23.9501C145.54 23.9414 145.533 23.9284 145.533 23.9154V21.5457C145.533 21.5327 145.527 21.5262 145.514 21.5262H145.025C145.012 21.5262 144.999 21.5219 144.991 21.511C144.982 21.5002 144.976 21.4893 144.976 21.4763V21.1682C144.976 21.1552 144.98 21.1421 144.991 21.1335C145.002 21.1248 145.012 21.1183 145.025 21.1183H146.54C146.555 21.1204 146.566 21.1248 146.577 21.1335Z" fill="white"/>
</g>
<defs>
<linearGradient id="paint0_linear_113_2437" x1="0.00102357" y1="9.56311" x2="33.1114" y2="9.56311" gradientUnits="userSpaceOnUse">
<stop offset="0.1" stop-color="#DC7896"/>
<stop offset="0.9" stop-color="#9E59FE"/>
</linearGradient>
<clipPath id="clip0_113_2437">
<rect width="148" height="24" fill="white"/>
</clipPath>
</defs>
</svg>
